# xmcd
# 
# Track frame offsets:
#     150
#     14162
#     28842
#     42485
#     56567
#     71592
#     85562
#     99915
#     113875
#     127155
#     139915
#     154727
#     169772
#     184422
#     198457
#     211365
#     226605
#     239077
#     251700
#     264957
# 
# Disc length: 3716
# 
# Revision: 2
# Processed by: cddbd v1.5.2PL0 Copyright (c) Steve Scherf et al.
# Submitted via: fre:ac v1.1beta1pre3
# 
DISCID=240e8214
DTITLE=Blind Boy Fuller - East Coast Piedmont Style
DYEAR=1991
DGENRE=Blues
TTITLE0=Rag, Mama, Rag
TTITLE1=Baby You Gotta Change Your Mind
TTITLE2=My Brownskin Sugar Plum
TTITLE3=I'm A Rattlesnakin' Daddy
TTITLE4=I'm Climbin' On Top Of The Hill
TTITLE5=Baby, I Don't Have To Worry ('Cause That Stuff Is Here)
TTITLE6=Looking For My Woman
TTITLE7=Ain't It A Cryin' Shame?
TTITLE8=Walking My Troubles Away
TTITLE9=Sweet Honey Hole
TTITLE10=Somebody's Been Playing With That Thing
TTITLE11=Log Cabin Blues
TTITLE12=Keep Away From My Woman
TTITLE13=Can Man Blues
TTITLE14=Untrue Blues
TTITLE15=Black And Tan
TTITLE16=Big Leg Woman Gets My Pay
TTITLE17=You've Got Something There
TTITLE18=I'm A Stranger Here
TTITLE19=Evil Hearted Woman
EXTD=
EXTT0=
EXTT1=
EXTT2=
EXTT3=
EXTT4=
EXTT5=
EXTT6=
EXTT7=
EXTT8=
EXTT9=
EXTT10=
EXTT11=
EXTT12=
EXTT13=
EXTT14=
EXTT15=
EXTT16=
EXTT17=
EXTT18=
EXTT19=
PLAYORDER=
